HIERARCHY
ROOT Hips
{
    OFFSET 14.466818809509277 90.37830352783203 -17.832443237304688
    CHANNELS 6 Xposition Yposition Zposition Zrotation Xrotation Yrotation
    JOINT RightUpLeg
    {
        OFFSET -14.466818809509277 0.0 0.0
        CHANNELS 3 Zrotation Xrotation Yrotation
        JOINT RightLeg
        {
            OFFSET 0.0 -45.79719543457031 0.0
            CHANNELS 3 Zrotation Xrotation Yrotation
            JOINT RightFoot
            {
                OFFSET 0.0 -44.58110809326172 0.0
                CHANNELS 3 Zrotation Xrotation Yrotation
                End Site
                {
                    OFFSET 0.0 0.0 17.832443237304688
                }
            }
        }
    }
    JOINT LeftUpLeg
    {
        OFFSET 14.466818809509277 0.0 0.0
        CHANNELS 3 Zrotation Xrotation Yrotation
        JOINT LeftLeg
        {
            OFFSET 0.0 -45.79719543457031 0.0
            CHANNELS 3 Zrotation Xrotation Yrotation
            JOINT LeftFoot
            {
                OFFSET 0.0 -44.58110809326172 0.0
                CHANNELS 3 Zrotation Xrotation Yrotation
                End Site
                {
                    OFFSET 0.0 0.0 17.832443237304688
                }
            }
        }
    }
    JOINT Spine
    {
        OFFSET 0.0 24.381874084472656 0.0
        CHANNELS 3 Zrotation Xrotation Yrotation
        JOINT Spine3
        {
            OFFSET 0.0 24.16606903076172 0.0
            CHANNELS 3 Zrotation Xrotation Yrotation
            JOINT Neck
            {
                OFFSET 0.0 12.177033424377441 0.0
                CHANNELS 3 Zrotation Xrotation Yrotation
                End Site
                {
                    OFFSET 0.0 4.870813369750977 0.0
                }
            }
            JOINT LeftArm
            {
                OFFSET 15.44156551361084 0.0 0.0
                CHANNELS 3 Zrotation Xrotation Yrotation
                JOINT LeftForeArm
                {
                    OFFSET 28.789119720458984 0.0 0.0
                    CHANNELS 3 Zrotation Xrotation Yrotation
                    JOINT LeftHand
                    {
                        OFFSET 23.493553161621094 0.0 0.0
                        CHANNELS 3 Zrotation Xrotation Yrotation
                        End Site
                        {
                            OFFSET 9.397422790527344 0.0 0.0
                        }
                    }
                }
            }
            JOINT RightArm
            {
                OFFSET -15.44156551361084 0.0 0.0
                CHANNELS 3 Zrotation Xrotation Yrotation
                JOINT RightForeArm
                {
                    OFFSET -28.789119720458984 0.0 0.0
                    CHANNELS 3 Zrotation Xrotation Yrotation
                    JOINT RightHand
                    {
                        OFFSET -23.493553161621094 0.0 0.0
                        CHANNELS 3 Zrotation Xrotation Yrotation
                        End Site
                        {
                            OFFSET -9.397422790527344 0.0 0.0
                        }
                    }
                }
            }
        }
    }
}
MOTION
Frames: 4
Frame Time: 0.03333333333333333
0.0004945658729411662 86.32756805419922 -0.0008988957852125168 -3.3166520247605256 -0.5548868934481439 -34.37034608476561 -4.338238197645921 1.9652962875961604 0.1356335192301948 15.419752187419157 26.661222894924943 -5.215369792470728 -1.5902773407317582e-15 3.975693351829395e-15 -1.1927080055488186e-15 4.927611346689864 -4.970694964101603 0.4659396422811121 -13.016311247513011 49.414595063892264 5.8356416416522565 -7.951386703658792e-16 -1.987846675914698e-16 -1.1927080055488188e-15 4.4455252230513596 24.10422709001464 -1.9948535380162067 4.737489625369678e-07 -2.0629458019232785e-07 -4.3725881477897826 -0.42669297861998745 -1.2529822191400566 -173.58821632462892 127.69669859909665 24.276475820194232 -167.1622021943115 1.4362749031377856e-08 -4.5249608921589367e-07 116.17248973119605 0.0 3.1805546814635164e-15 0.0 -125.91422508403073 21.34023120436072 170.30625575167184 5.067951293149317e-06 1.9785292706889477e-06 -64.77704669302209 -7.951386703658794e-16 -6.758678698109974e-15 -4.689775441678294e-32
0.0005415525520220399 86.32770538330078 -0.000834204547572881 -2.63120016336941 0.32381264468875415 -34.91410396119362 -4.449869941133678 -0.4210658139253695 -0.026155053553159474 15.945918107717475 29.164026524748696 -6.048175237806619 1.5902773407317582e-15 3.310429723537619e-32 2.385416011097637e-15 4.262457710228298 -8.561446942171628 0.7547809599467057 -11.118816553111976 54.41149910022939 4.97671000626007 3.1805546814635168e-15 -7.724336021587778e-32 -2.782985346280577e-15 4.351928037869801 24.34709396770115 -2.1227849035864 -7.143496427533431e-08 -3.2623100497332807e-07 -4.537428553280336 -0.29764738028581833 -2.508174882004181 -174.16463024312074 130.8986823049146 22.752841657028288 -167.30672874435635 -1.1405192337972527e-06 -5.961400257246216e-07 114.23230054163078 -1.7655625192200634e-31 6.3611093629270335e-15 3.1805546814635168e-15 -127.57280259541135 22.917765842946082 169.25982575760216 2.8329473069318693e-07 -9.388191940191463e-07 -67.23506823812492 -1.5902773407317582e-15 -6.361109362927033e-15 -8.827812596100317e-32
0.0005634635454043746 86.32810974121094 -0.0009239720529876649 -1.427488458869821 1.366159809394772 -35.339589126009365 -5.235688797784871 -2.8435659568709415 -0.18857717581444525 16.58098949053563 31.7086559151688 -6.788839193949578 1.5902773407317584e-15 -3.310429723537619e-32 -2.3854160110976376e-15 2.773078968249126 -11.867376959427336 0.8675580086948096 -7.067707078958378 58.759968232535655 2.514046798185021 -1.5902773407317584e-15 3.975693351829396e-16 1.5902773407317584e-15 4.831358191889974 23.238884296349234 -2.478220473088557 -5.125765841029087e-07 1.3008120163514503e-06 -3.6772412006023583 -0.5452690792826124 -3.845297299467328 -176.56384749100752 134.94965868986262 21.520369160797856 -168.23169677073628 -1.2932547020985326e-06 2.405632766815583e-07 110.13928129063588 -6.361109362927033e-15 3.1805546814635164e-15 1.7655625192200634e-31 -131.71445889177875 24.5327311445256 168.68945389423305 -1.7049583640900952e-06 6.688892653944606e-07 -69.71586899714632 7.951386703658791e-16 3.9756933518293955e-16 -2.758691436281349e-33
0.0003802397404797375 86.32857513427734 -0.0011206219205632806 0.6370187767541746 2.0691239099260708 -36.211056592595874 -7.917686420724681 -5.8815380979290115 -0.5022076925491511 18.618667925951687 33.471812488292414 -7.679769053819761 3.1805546814635168e-15 -4.4139062980501586e-32 -1.5902773407317584e-15 0.4465905711330602 -14.4551035120674 0.8718457259581576 -3.147080692445383 61.18120306978369 -0.2082676418630227 -3.1805546814635164e-15 2.2069531490250793e-32 -7.951386703658791e-16 3.7253056100801034 21.684734968254276 -2.5062799388493806 3.714055791305087e-07 -8.222909133048641e-07 -2.8241323627546278 -0.2975458762670931 -4.508394292639515 -176.42905650196863 137.00546787437895 21.901341648288305 -167.48293205966635 -2.213513657747717e-06 1.6529858148429455e-06 92.93121202134034 3.1805546814635168e-15 3.1805546814635168e-15 -8.827812596100317e-32 -134.25766495810018 24.37500165750653 164.533406241506 -2.4345313379254684e-06 1.9144059771102577e-06 -67.02632653687625 -7.951386703658794e-16 -5.9635400277440935e-15 -3.1805546814635168e-15
